<?xml version="1.0" encoding="UTF-8" standalone="no"?>
<!-- Created with Inkscape (http://www.inkscape.org/) -->

<svg
   width="47.625mm"
   height="47.625004mm"
   viewBox="0 0 47.625 47.625004"
   version="1.1"
   id="svg5"
   inkscape:version="1.2.1 (2ed6d7ae0b, 2022-08-22, custom)"
   sodipodi:docname="logo.svg"
   xmlns:inkscape="http://www.inkscape.org/namespaces/inkscape"
   xmlns:sodipodi="http://sodipodi.sourceforge.net/DTD/sodipodi-0.dtd"
   xmlns="http://www.w3.org/2000/svg"
   xmlns:svg="http://www.w3.org/2000/svg">
  <sodipodi:namedview
     id="namedview7"
     pagecolor="#ffffff"
     bordercolor="#666666"
     borderopacity="1.0"
     inkscape:pageshadow="2"
     inkscape:pageopacity="0.0"
     inkscape:pagecheckerboard="0"
     inkscape:document-units="mm"
     showgrid="false"
     inkscape:zoom="1.8669426"
     inkscape:cx="69.632563"
     inkscape:cy="65.615299"
     inkscape:window-width="1846"
     inkscape:window-height="1016"
     inkscape:window-x="0"
     inkscape:window-y="0"
     inkscape:window-maximized="1"
     inkscape:current-layer="layer1"
     inkscape:showpageshadow="2"
     inkscape:deskcolor="#d1d1d1" />
  <defs
     id="defs2" />
  <g
     inkscape:label="Ebene 1"
     inkscape:groupmode="layer"
     id="layer1"
     transform="translate(-29.357744,-62.250751)">
    <rect
       style="fill:#ff5555;fill-opacity:1;fill-rule:evenodd;stroke-width:0.264583"
       id="rect64955"
       width="47.625"
       height="47.625004"
       x="29.357744"
       y="62.250751" />
    <path
       style="opacity:0.128174;fill:#000000;stroke:none;stroke-width:0.264583px;stroke-linecap:butt;stroke-linejoin:miter;stroke-opacity:1"
       d="M 29.357744,62.250751 V 104.42873 L 69.254349,62.28833 Z"
       id="path939" />
    <rect
       style="opacity:0.128174;fill:#000000;fill-opacity:1;stroke:none;stroke-width:0.21432"
       id="rect1241"
       width="16.466745"
       height="47.625"
       x="29.357744"
       y="62.250751" />
    <g
       id="g1932"
       style="stroke:#ffffff"
       transform="matrix(0.78479237,-0.37398905,0.40925908,0.71715879,32.695734,24.168018)">
      <path
         sodipodi:type="spiral"
         style="fill:none;fill-rule:evenodd;stroke:#ffffff;stroke-width:3.66614;stroke-dasharray:none"
         id="path1796"
         sodipodi:cx="-175.93312"
         sodipodi:cy="4.0967717"
         sodipodi:expansion="1"
         sodipodi:revolution="3"
         sodipodi:radius="29.770174"
         sodipodi:argument="-18.376541"
         sodipodi:t0="0"
         d="m -175.93312,4.0967717 c 1.32874,0.6800002 -0.26108,2.1265988 -1.13021,2.208448 -2.35529,0.2218062 -3.6177,-2.4790743 -3.28669,-4.4688581 0.5921,-3.5592566 4.57209,-5.2391869 7.80751,-4.3649338 4.74812,1.2830015 6.89644,6.6890479 5.44318,11.1461642 -1.93696,5.940635 -8.81393,8.568173 -14.48482,6.52142 -7.13623,-2.57563 -10.24726,-10.9424402 -7.59966,-17.8234708 3.2066,-8.3338502 13.07297,-11.9305842 21.16212,-8.6779052 9.53279,3.8331695 13.61656,15.2047512 9.75615,24.500776 -4.45699,10.732629 -17.33737,15.304293 -27.83943,10.834391 -11.9331,-5.078986 -16.99327,-19.4705774 -11.91263,-31.1780821 5.6997,-13.1340509 21.60422,-18.6831449 34.51674,-12.9908769 14.33534,6.319496 20.37369,23.7381798 14.06911,37.855389"
         transform="matrix(-0.33037565,-0.02012958,0.0368904,-0.1802725,-72.14292,55.845996)" />
      <path
         style="fill:none;stroke:#ffffff;stroke-width:0.9;stroke-linecap:butt;stroke-linejoin:miter;stroke-dasharray:none;stroke-opacity:1"
         d="m -22.176342,55.888846 2.194449,1.295411"
         id="path1798" />
      <path
         style="fill:none;stroke:#ffffff;stroke-width:0.9;stroke-linecap:butt;stroke-linejoin:miter;stroke-dasharray:none;stroke-opacity:1"
         d="M -23.498877,58.949669 V 98.741467"
         id="path1800" />
      <path
         style="fill:none;stroke:#ffffff;stroke-width:0.9;stroke-linecap:butt;stroke-linejoin:miter;stroke-dasharray:none;stroke-opacity:1"
         d="M -5.7229683,58.949669 V 98.741467"
         id="path1800-6" />
      <path
         style="fill:none;stroke:#ffffff;stroke-width:0.9;stroke-linecap:butt;stroke-linejoin:miter;stroke-dasharray:none;stroke-opacity:1"
         d="m -23.578825,98.249034 c 0,0 0.748462,1.49643 1.319356,2.090706 0.671222,0.69871 1.505521,1.26194 2.393913,1.64859 1.037007,0.45134 2.188095,0.61331 3.312649,0.73358 1.191772,0.12745 2.404155,0.11247 3.595664,-0.0174 1.216879,-0.13266 2.446035,-0.33777 3.5897951,-0.7739 0.879417,-0.33533 1.7846694,-0.73367 2.4555687,-1.39376 0.5738701,-0.564621 1.2261534,-2.080785 1.2261534,-2.080785"
         id="path1829"
         sodipodi:nodetypes="caaaaaac" />
    </g>
  </g>
</svg>
