<?xml version="1.0" encoding="UTF-8" standalone="no"?>
<svg
   style="enable-background:new"
   height="1306.8011"
   viewBox="0 0 858.8836 1306.8011"
   width="858.88361"
   version="1.1"
   id="svg925"
   sodipodi:docname="splash.svg"
   inkscape:version="1.2.1 (2ed6d7ae0b, 2022-08-22, custom)"
   xml:space="preserve"
   xmlns:inkscape="http://www.inkscape.org/namespaces/inkscape"
   xmlns:sodipodi="http://sodipodi.sourceforge.net/DTD/sodipodi-0.dtd"
   xmlns="http://www.w3.org/2000/svg"
   xmlns:svg="http://www.w3.org/2000/svg"
   xmlns:rdf="http://www.w3.org/1999/02/22-rdf-syntax-ns#"
   xmlns:cc="http://creativecommons.org/ns#"
   xmlns:dc="http://purl.org/dc/elements/1.1/"><metadata
     id="metadata929"><rdf:RDF><cc:Work
         rdf:about=""><dc:format>image/svg+xml</dc:format><dc:type
           rdf:resource="http://purl.org/dc/dcmitype/StillImage" /><dc:title /></cc:Work></rdf:RDF></metadata><sodipodi:namedview
     pagecolor="#ffffff"
     bordercolor="#666666"
     borderopacity="1"
     objecttolerance="10"
     gridtolerance="10"
     guidetolerance="10"
     inkscape:pageopacity="0"
     inkscape:pageshadow="2"
     inkscape:window-width="1846"
     inkscape:window-height="1016"
     id="namedview927"
     showgrid="false"
     inkscape:zoom="0.5938592"
     inkscape:cx="188.59689"
     inkscape:cy="575.05213"
     inkscape:window-x="0"
     inkscape:window-y="0"
     inkscape:window-maximized="1"
     inkscape:current-layer="svg925"
     inkscape:pagecheckerboard="0"
     inkscape:showpageshadow="2"
     inkscape:deskcolor="#d1d1d1" /><defs
     id="defs897"><linearGradient
       id="a"
       y2="494"
       gradientUnits="userSpaceOnUse"
       x2="256"
       gradientTransform="matrix(1,0,0,1.076,0,-19.36)"
       y1="18"
       x1="256"><stop
         style="stop-color:#eaeaea"
         offset="0"
         id="stop892" /><stop
         style="stop-color:#f4f4f4"
         offset="1"
         id="stop894" /></linearGradient></defs><g
     inkscape:label="Ebene 1"
     id="layer1-3"
     transform="matrix(5.8378582,0,0,5.8378582,133.76786,129.45076)"><rect
       style="fill:#ff5555;fill-opacity:1;fill-rule:evenodd;stroke-width:0.264583"
       id="rect64955-6"
       width="47.625"
       height="47.625004"
       x="29.357744"
       y="62.250751" /><path
       style="opacity:0.128174;fill:#000000;stroke:none;stroke-width:0.264583px;stroke-linecap:butt;stroke-linejoin:miter;stroke-opacity:1"
       d="M 29.357744,62.250751 V 104.42873 L 69.254349,62.28833 Z"
       id="path939-7" /><rect
       style="opacity:0.128174;fill:#000000;fill-opacity:1;stroke:none;stroke-width:0.21432"
       id="rect1241-5"
       width="16.466745"
       height="47.625"
       x="29.357744"
       y="62.250751" /><g
       id="g1932"
       style="stroke:#ffffff"
       transform="matrix(0.78479237,-0.37398905,0.40925908,0.71715879,32.695734,24.168018)"><path
         sodipodi:type="spiral"
         style="fill:none;fill-rule:evenodd;stroke:#ffffff;stroke-width:3.66614;stroke-dasharray:none"
         id="path1796"
         sodipodi:cx="-175.93312"
         sodipodi:cy="4.0967717"
         sodipodi:expansion="1"
         sodipodi:revolution="3"
         sodipodi:radius="29.770174"
         sodipodi:argument="-18.376541"
         sodipodi:t0="0"
         d="m -175.93312,4.0967717 c 1.32874,0.6800002 -0.26108,2.1265988 -1.13021,2.208448 -2.35529,0.2218062 -3.6177,-2.4790743 -3.28669,-4.4688581 0.5921,-3.5592566 4.57209,-5.2391869 7.80751,-4.3649338 4.74812,1.2830015 6.89644,6.6890479 5.44318,11.1461642 -1.93696,5.940635 -8.81393,8.568173 -14.48482,6.52142 -7.13623,-2.57563 -10.24726,-10.9424402 -7.59966,-17.8234708 3.2066,-8.3338502 13.07297,-11.9305842 21.16212,-8.6779052 9.53279,3.8331695 13.61656,15.2047512 9.75615,24.500776 -4.45699,10.732629 -17.33737,15.304293 -27.83943,10.834391 -11.9331,-5.078986 -16.99327,-19.4705774 -11.91263,-31.1780821 5.6997,-13.1340509 21.60422,-18.6831449 34.51674,-12.9908769 14.33534,6.319496 20.37369,23.7381798 14.06911,37.855389"
         transform="matrix(-0.33037565,-0.02012958,0.0368904,-0.1802725,-72.14292,55.845996)" /><path
         style="fill:none;stroke:#ffffff;stroke-width:0.9;stroke-linecap:butt;stroke-linejoin:miter;stroke-dasharray:none;stroke-opacity:1"
         d="m -22.176342,55.888846 2.194449,1.295411"
         id="path1798" /><path
         style="fill:none;stroke:#ffffff;stroke-width:0.9;stroke-linecap:butt;stroke-linejoin:miter;stroke-dasharray:none;stroke-opacity:1"
         d="M -23.498877,58.949669 V 98.741467"
         id="path1800" /><path
         style="fill:none;stroke:#ffffff;stroke-width:0.9;stroke-linecap:butt;stroke-linejoin:miter;stroke-dasharray:none;stroke-opacity:1"
         d="M -5.7229683,58.949669 V 98.741467"
         id="path1800-6" /><path
         style="fill:none;stroke:#ffffff;stroke-width:0.9;stroke-linecap:butt;stroke-linejoin:miter;stroke-dasharray:none;stroke-opacity:1"
         d="m -23.578825,98.249034 c 0,0 0.748462,1.49643 1.319356,2.090706 0.671222,0.69871 1.505521,1.26194 2.393913,1.64859 1.037007,0.45134 2.188095,0.61331 3.312649,0.73358 1.191772,0.12745 2.404155,0.11247 3.595664,-0.0174 1.216879,-0.13266 2.446035,-0.33777 3.5897951,-0.7739 0.879417,-0.33533 1.7846694,-0.73367 2.4555687,-1.39376 0.5738701,-0.564621 1.2261534,-2.080785 1.2261534,-2.080785"
         id="path1829"
         sodipodi:nodetypes="caaaaaac" /></g></g><path
     d="m 0.50369568,1024.8913 c -7.84199998,0 -14.54999968,5.029 -17.31999968,12.19 -0.0612,-7e-4 -0.1208,0 -0.1823,0 -7.088,0 -12.83,6.002 -12.83,13.41 0,7.404 5.746,13.41 12.83,13.41 H 0.50139568 16.831396 c 5.155,0 9.333,-4.365 9.333,-9.75 0,-4.543 -2.974,-8.363 -7,-9.445 0.001,-0.1029 0,-0.2015 0,-0.3047 0,-10.77 -8.357,-19.5 -18.67000032,-19.5 z"
     style="color:#000000;display:none;fill:#ffffff;stroke:#cccccc;stroke-width:4;enable-background:accumulate"
     id="path909"
     inkscape:connector-curvature="0" /><path
     style="color:#000000;display:none;fill:none;stroke:#cccccc;stroke-width:4;enable-background:accumulate"
     d="m 497.7037,1247.3913 c -6.349,0 -11.78,4.072 -14.02,9.867 -0.0496,-6e-4 -0.0978,0 -0.1476,0 -5.738,0 -10.39,4.86 -10.39,10.85 0,5.995 4.652,10.85 10.39,10.85 h 14.17 13.22 c 4.173,0 7.557,-3.534 7.557,-7.894 0,-3.678 -2.408,-6.771 -5.667,-7.647 10e-4,-0.083 0,-0.1632 0,-0.2467 0,-8.719 -6.766,-15.79 -15.11,-15.79 z"
     id="path911"
     inkscape:connector-curvature="0" /><g
     style="display:none"
     transform="translate(208.8037,-139.10871)"
     id="g923"><path
       d="M 166.1,576.4 H 346 c 145.3,0 166.1,20.74 166.1,165.9 v 144.2 c 0,145.2 -20.76,165.9 -166.1,165.9 H 166.1 C 20.8,1052.4 0,1032.4 0,886.9 V 742.7 C 0,597.5 20.76,576.8 166.1,576.8 Z"
       style="display:inline;fill:#0000ff;fill-opacity:0.08117999;stroke:#0000ff"
       id="path913"
       inkscape:connector-curvature="0" /><circle
       style="color:#000000;display:inline;fill:#0000ff;fill-opacity:0.08117999;stroke:#0000ff;stroke-width:0.83329999;enable-background:accumulate"
       cx="256"
       transform="matrix(1.2,0,0,1.2,-51.2,528.8)"
       cy="238"
       r="120"
       id="circle915" /><rect
       style="color:#000000;display:inline;fill:#0000ff;fill-opacity:0.08117999;stroke:#0000ff;stroke-linecap:round;stroke-linejoin:round;enable-background:accumulate"
       height="272"
       width="272"
       y="678.40002"
       x="120"
       id="rect917" /><rect
       style="color:#000000;display:inline;fill:#0000ff;fill-opacity:0.08117999;stroke:#0000ff;stroke-linecap:round;stroke-linejoin:round;enable-background:accumulate"
       height="240"
       width="304"
       y="694.40002"
       x="104"
       id="rect919" /><rect
       style="color:#000000;display:inline;fill:#0000ff;fill-opacity:0.08117999;stroke:#0000ff;stroke-linecap:round;stroke-linejoin:round;enable-background:accumulate"
       height="304"
       width="240"
       y="662.40002"
       x="136"
       id="rect921" /></g><rect
     style="opacity:0.525;fill:#ff5db0;fill-opacity:0;stroke:none;stroke-width:1.00157475;stroke-linecap:round;stroke-linejoin:bevel;stroke-miterlimit:4;stroke-dasharray:none;stroke-opacity:1"
     id="rect934"
     width="543.89996"
     height="545.58386"
     x="94.298447"
     y="407.59811" /><rect
     style="opacity:0.525;fill:#fffffd;fill-opacity:0;stroke:none;stroke-width:1.00157475;stroke-linecap:round;stroke-linejoin:bevel;stroke-miterlimit:4;stroke-dasharray:none;stroke-opacity:1"
     id="rect964"
     width="158.28668"
     height="90.930641"
     x="281.21143"
     y="222.36903" /><rect
     style="opacity:0.525;fill:#fffffd;fill-opacity:0;stroke:none;stroke-width:1.00157475;stroke-linecap:round;stroke-linejoin:bevel;stroke-miterlimit:4;stroke-dasharray:none;stroke-opacity:1"
     id="rect966"
     width="53.884827"
     height="252.58511"
     x="156.60277"
     y="181.95541" /></svg>
